<?xml version="1.0" encoding="utf-8"?>
<svg xmlns="http://www.w3.org/2000/svg" id="Layer_1" style="enable-background:new 0 0 606.2 227.7;" version="1.1" viewBox="0 0 606.2 227.7" x="0px" y="0px">
<style type="text/css">
	.st0{fill:#FCF6EB;}
</style>
<g>
	<path class="st0" d="M598,47.7c-5.4-5.4-12.5-8.2-20.6-8.2s-15.2,2.8-20.6,8.1c-4.2,4-6.8,9.1-7.9,14.8&#xA;		c-2.3-14.1-13-22.9-28.6-22.9c-3.3,0-6.5,0.5-9.4,1.4v-12c0-8.2-2.9-15.4-8.5-20.8C496.9,2.8,489.8,0,481.8,0s-15.1,2.9-20.5,8.3&#xA;		S453,20.9,453,28.8v11c-2.3-0.5-4.8-0.8-7.3-0.8c-18.3,0-33.9,6.3-46.4,18.9c-0.2,0.2-0.3,0.3-0.5,0.5C395.4,46.4,385.2,39,371,39&#xA;		c-8.1,0-15.2,2.8-20.6,8.2c-4.2,4.2-6.9,9.5-7.8,15.4c-1-6-3.6-11.2-7.8-15.4c-5.4-5.4-12.5-8.2-20.6-8.2s-15.2,2.8-20.6,8.2&#xA;		c-4.2,4.2-6.9,9.5-7.8,15.4c-1-5.9-3.6-11.2-7.8-15.4c-5.4-5.4-12.5-8.2-20.6-8.2c-14.3,0-24.6,7.5-27.9,19.7&#xA;		c-0.2-0.2-0.4-0.4-0.6-0.6l0,0c-12.5-12.4-28.1-18.7-46.4-18.7s-33.3,6.1-45.6,18V28.9c0-8.2-2.9-15.4-8.5-20.8&#xA;		C122.7,2.8,115.6,0,107.6,0S92.3,2.8,86.9,8.2s-8.2,12.5-8.2,20.6V55H58V28.9c0-8.2-2.9-15.4-8.5-20.8C44,2.8,36.9,0,28.9,0&#xA;		S13.6,2.8,8.2,8.2S0,20.8,0,28.9v127.6c0,8.1,2.8,15.3,8.2,20.6c5.4,5.4,12.5,8.2,20.6,8.2s15.1-2.8,20.6-8.1&#xA;		c5.6-5.4,8.5-12.6,8.5-20.8v-28.7h20.7v42.4c0,16.1,5.6,29.9,16.6,40.9c16.6,16.6,34,16.6,49.4,16.6h1.4c8,0,15.1-2.8,20.6-8.1&#xA;		c5.6-5.4,8.5-12.6,8.5-20.8c0-2.8-0.3-11.5-0.1-13.4c2.4,0.2,4.8,0.4,7.2,0.4c18.3,0,33.9-6.3,46.4-18.8c2.8-2.8,5.3-5.8,7.5-9&#xA;		c2.3,3.8,5.1,7.3,8.3,10.5c11,11,24.8,16.5,41,16.5c10,0,19.9-2.4,28.5-6.8c8.6,4.4,18.5,6.8,28.5,6.8c16.3,0,30.1-5.6,41-16.5&#xA;		c3.3-3.3,6.1-6.9,8.5-10.7c2.2,3.1,4.6,6,7.4,8.8c12.5,12.5,28,18.8,46.2,18.8s33.7-6.3,46.3-18.8c2.8-2.8,8.6-6.8,9.2-5.8&#xA;		c-0.5,0.4-1,0.9-1.4,1.3c-5.5,5.5-8.4,12.6-8.4,20.8v16c0,8.2,2.9,15.4,8.5,20.8c5.4,5.3,12.6,8.1,20.6,8.1h28.3&#xA;		c16.1,0,29.9-5.6,40.9-16.6s16.6-24.8,16.6-40.9V68.3C606.3,60.2,603.4,53.1,598,47.7L598,47.7L598,47.7z"/>
	<g>
		<path d="M314,143.2c7.8,6.5,18.3,9.8,28.5,9.8c11.9,0,21.8-3.9,29.7-11.8c7.9-7.9,11.8-17.8,11.8-29.7V67.9&#xA;			c0-8.6-4.4-12.9-13.1-12.9c-3.9,0-7,1.2-9.3,3.6c-2.4,2.4-3.6,5.5-3.6,9.3v43.5c0,4.4-1.5,8.1-4.5,11.1s-6.7,4.5-11.1,4.5&#xA;			s-8-1.5-11.1-4.5c-3-3-4.5-6.7-4.5-11.1V67.9c0-3.8-1.2-7-3.6-9.3c-2.4-2.4-5.5-3.6-9.3-3.6s-7,1.2-9.3,3.6&#xA;			c-2.4,2.4-3.6,5.5-3.6,9.3v43.5c0,4.4-1.5,8.1-4.5,11.1s-6.7,4.5-11.1,4.5s-8-1.5-11.1-4.5c-3-3-4.5-6.7-4.5-11.1V67.9&#xA;			c0-3.8-1.2-7-3.6-9.3c-2.4-2.4-5.5-3.6-9.3-3.6c-8.7,0-13.1,4.3-13.1,12.9v43.5c0,11.9,3.9,21.8,11.8,29.7&#xA;			c7.9,7.9,17.8,11.8,29.7,11.8C295.7,153,306.2,149.7,314,143.2L314,143.2L314,143.2z"/>
		<path d="M494.9,104.3V28.9c0-3.9-1.2-7-3.7-9.3s-5.6-3.6-9.4-3.6s-6.8,1.2-9.2,3.7s-3.7,5.5-3.7,9.2v75.4c0,6.4-2.3,11.9-6.8,16.3&#xA;			c-4.5,4.5-10,6.7-16.5,6.7s-11.9-2.2-16.4-6.7s-6.7-9.9-6.7-16.3s2.2-11.9,6.7-16.4c4.5-4.6,9.9-6.8,16.4-6.8c3.9,0,7-1.2,9.4-3.6&#xA;			s3.7-5.5,3.7-9.3s-1.2-7-3.7-9.4c-2.4-2.4-5.6-3.7-9.4-3.7c-14,0-25.6,4.7-35,14.1s-14,21.1-14,35.1s4.7,25.5,14.1,34.9&#xA;			c9.4,9.4,21.1,14.1,34.9,14.1s25.5-4.7,35-14.1C490.1,129.8,494.8,118.2,494.9,104.3L494.9,104.3L494.9,104.3z"/>
		<path d="M590.3,154.1V68.3c0-3.8-1.2-7-3.6-9.3c-2.4-2.4-5.5-3.6-9.3-3.6s-7,1.2-9.4,3.6c-2.4,2.4-3.7,5.5-3.7,9.3v43.5&#xA;			c0,4.4-1.5,8.1-4.4,11.1c-3,3-6.6,4.5-11,4.5s-8-1.5-11.1-4.5c-3-3-4.5-6.7-4.5-11.1V68.3c0-8.6-4.4-12.9-13.1-12.9&#xA;			c-3.8,0-7,1.2-9.3,3.6c-2.4,2.4-3.6,5.5-3.6,9.3v43.5c0,11.9,3.9,21.8,11.8,29.7s17.8,11.8,29.7,11.8c5.4,0,10.5-1,15.4-2.9v3.7&#xA;			c0,4.2-1.5,7.9-4.6,11s-6.7,4.6-11,4.6h-28.3c-3.8,0-7,1.2-9.4,3.7c-2.4,2.4-3.7,5.6-3.7,9.4s1.2,7,3.7,9.3&#xA;			c2.4,2.4,5.6,3.6,9.4,3.6h28.3c11.8,0,21.7-4,29.6-11.9C586.3,175.8,590.3,165.9,590.3,154.1L590.3,154.1L590.3,154.1z"/>
		<path d="M217.3,69.5c-9.4-9.4-21.1-14-35.1-14s-25.6,4.7-35,14s-14,21-14,35s4.7,25.7,14,35.1s21,14.1,35,14.1s25.7-4.7,35.1-14.1&#xA;			c9.4-9.4,14.1-21.1,14.1-35.1S226.8,78.8,217.3,69.5z M198.7,120.9c-4.6,4.6-10,6.8-16.4,6.8s-11.9-2.3-16.4-6.8&#xA;			c-4.5-4.6-6.7-10-6.7-16.4s2.2-11.9,6.7-16.3c4.5-4.5,9.9-6.7,16.4-6.7s11.9,2.2,16.4,6.7c4.6,4.5,6.8,9.9,6.8,16.3&#xA;			S203.2,116.4,198.7,120.9z"/>
		<path d="M159.1,182.8c0-3.9-1.2-7-3.7-9.4s-5.6-3.7-9.4-3.7h-1.1c-9.6,0-14.9,0.5-19.7-4.5c-3-3.1-4.5-6.7-4.5-11.1V28.9&#xA;			c0-3.9-1.2-7-3.7-9.3s-5.6-3.6-9.4-3.6s-7,1.2-9.3,3.6c-2.4,2.4-3.6,5.5-3.6,9.3v42.2H42V28.9c0-3.9-1.2-7-3.7-9.3&#xA;			S32.7,16,28.9,16s-7,1.2-9.3,3.6C17.2,21.9,16,25,16,28.9v111.6c0,3.9,1.2,7,3.6,9.3c2.4,2.4,5.5,3.6,9.3,3.6s7-1.2,9.4-3.6&#xA;			c2.4-2.4,3.7-5.5,3.7-9.3V97h52.7v57.1c0,11.8,4,21.7,11.9,29.6c12,12,23.9,11.9,38.3,11.9h1.1c3.9,0,7-1.2,9.4-3.6&#xA;			C157.9,189.8,159.1,186.7,159.1,182.8L159.1,182.8L159.1,182.8z"/>
	</g>
</g>
</svg>