<?xml version="1.0" encoding="UTF-8"?>
<svg width="364px" height="360px" viewBox="0 0 364 360" version="1.1" xmlns="http://www.w3.org/2000/svg" xmlns:xlink="http://www.w3.org/1999/xlink">
    <!-- Generator: Sketch 62 (91390) - https://sketch.com -->
    <title>Artboard</title>
    <desc>Created with Sketch.</desc>
    <g id="Artboard" stroke="none" stroke-width="1" fill="none" fill-rule="evenodd">
        <circle id="Oval" fill="#FFFFFF" cx="180" cy="180" r="180"></circle>
        <path d="M180,67 C191.648187,67 201.090909,76.4020203 201.090909,88 C201.090909,95.77 196.872727,102.595 190.545455,106.165 L190.545455,119.5 L201.090909,119.5 C241.859565,119.5 274.909091,152.407071 274.909091,193 L285.454545,193 C291.278639,193 296,197.70101 296,203.5 L296,235 C296,240.79899 291.278639,245.5 285.454545,245.5 L274.909091,245.5 L274.909091,256 C274.909091,267.59798 265.466369,277 253.818182,277 L106.181818,277 C94.5336307,277 85.0909091,267.59798 85.0909091,256 L85.0909091,245.5 L74.5454545,245.5 C68.7213608,245.5 64,240.79899 64,235 L64,203.5 C64,197.70101 68.7213608,193 74.5454545,193 L85.0909091,193 C85.0909091,152.407071 118.140435,119.5 158.909091,119.5 L169.454545,119.5 L169.454545,106.165 C163.127273,102.595 158.909091,95.77 158.909091,88 C158.909091,76.4020203 168.351813,67 180,67 M133,183 C118.640597,183 107,194.640597 107,209 C107,223.359403 118.640597,235 133,235 C147.359403,235 159,223.359403 159,209 C159,194.640597 147.359403,183 133,183 M227,183 C212.640597,183 201,194.640597 201,209 C201,223.359403 212.640597,235 227,235 C241.359403,235 253,223.359403 253,209 C253,194.640597 241.359403,183 227,183 Z" id="Shape" stroke="#5268F2" stroke-width="4" fill="#5268F2" fill-rule="nonzero"></path>
    </g>
</svg>