<?xml version="1.0" encoding="UTF-8"?>
<svg width="976px" height="273px" viewBox="0 0 976 273" version="1.1" xmlns="http://www.w3.org/2000/svg" xmlns:xlink="http://www.w3.org/1999/xlink">
    <!-- Generator: Sketch 62 (91390) - https://sketch.com -->
    <title>Artboard</title>
    <desc>Created with Sketch.</desc>
    <g id="Artboard" stroke="none" stroke-width="1" fill="none" fill-rule="evenodd">
        <path d="M136.5,50 C145.386764,50 152.590909,57.2082155 152.590909,66.1 C152.590909,72.057 149.372727,77.2895 144.545455,80.0265 L144.545455,90.25 L152.590909,90.25 C183.694582,90.25 208.909091,115.478754 208.909091,146.6 L216.954545,146.6 C221.397927,146.6 225,150.204108 225,154.65 L225,178.8 C225,183.245892 221.397927,186.85 216.954545,186.85 L208.909091,186.85 L208.909091,194.9 C208.909091,203.791784 201.704946,211 192.818182,211 L80.1818182,211 C71.2950545,211 64.0909091,203.791784 64.0909091,194.9 L64.0909091,186.85 L56.0454545,186.85 C51.6020727,186.85 48,183.245892 48,178.8 L48,154.65 C48,150.204108 51.6020727,146.6 56.0454545,146.6 L64.0909091,146.6 C64.0909091,115.478754 89.305418,90.25 120.409091,90.25 L128.454545,90.25 L128.454545,80.0265 C123.627273,77.2895 120.409091,72.057 120.409091,66.1 C120.409091,57.2082155 127.613236,50 136.5,50 M100.5,139 C89.1781626,139 80,147.954305 80,159 C80,170.045695 89.1781626,179 100.5,179 C111.821837,179 121,170.045695 121,159 C121,147.954305 111.821837,139 100.5,139 M173,139 C161.954305,139 153,147.954305 153,159 C153,170.045695 161.954305,179 173,179 C184.045695,179 193,170.045695 193,159 C193,147.954305 184.045695,139 173,139 Z M136.5,273 C211.886868,273 273,211.886868 273,136.5 C273,61.1131317 211.886868,0 136.5,0 C61.1131317,0 0,61.1131317 0,136.5 C0,211.886868 61.1131317,273 136.5,273 Z" id="Shape" fill="#FFFFFF" fill-rule="nonzero"></path>
        <path d="M358.426426,221 C361.78979,221 364.112112,219.48 365.393393,216.44 L365.393393,216.44 L376.444444,187.4 L447.555556,187.4 L458.606607,216.44 C459.887888,219.48 462.21021,221 465.573574,221 L465.573574,221 L486.954955,221 C488.236236,221 489.397397,220.52 490.438438,219.56 C491.479479,218.6 492,217.4 492,215.96 L492,215.96 L491.51952,213.8 L433.861862,59 C432.26026,55 429.377377,53 425.213213,53 L425.213213,53 L398.786787,53 C394.622623,53 391.73974,55 390.138138,59 L390.138138,59 L332.48048,213.8 L332,215.96 C332,217.4 332.48048,218.6 333.441441,219.56 C334.402402,220.52 335.603604,221 337.045045,221 L337.045045,221 L358.426426,221 Z M439,161 L385,161 L412,87 L439,161 Z M632.008264,221 C633.76584,221 635.203857,220.44 636.322314,219.32 C637.440771,218.2 638,216.84 638,215.24 L638,215.24 L638,197.96 C638,196.36 637.440771,195 636.322314,193.88 C635.203857,192.76 633.76584,192.2 632.008264,192.2 L632.008264,192.2 L556.033058,192.2 L556.033058,58.76 C556.033058,57 555.513774,55.6 554.475207,54.56 C553.436639,53.52 552.038567,53 550.280992,53 L550.280992,53 L527.752066,53 C526.15427,53 524.796143,53.52 523.677686,54.56 C522.559229,55.6 522,57 522,58.76 L522,58.76 L522,215.24 C522,216.84 522.559229,218.2 523.677686,219.32 C524.796143,220.44 526.15427,221 527.752066,221 L527.752066,221 L632.008264,221 Z M680.426426,221 C683.78979,221 686.112112,219.48 687.393393,216.44 L687.393393,216.44 L698.444444,187.4 L769.555556,187.4 L780.606607,216.44 C781.887888,219.48 784.21021,221 787.573574,221 L787.573574,221 L808.954955,221 C810.236236,221 811.397397,220.52 812.438438,219.56 C813.479479,218.6 814,217.4 814,215.96 L814,215.96 L813.51952,213.8 L755.861862,59 C754.26026,55 751.377377,53 747.213213,53 L747.213213,53 L720.786787,53 C716.622623,53 713.73974,55 712.138138,59 L712.138138,59 L654.48048,213.8 L654,215.96 C654,217.4 654.48048,218.6 655.441441,219.56 C656.402402,220.52 657.603604,221 659.045045,221 L659.045045,221 L680.426426,221 Z M760,161 L706,161 L733,87 L760,161 Z M870.304348,221 C872.057971,221 873.452899,220.44 874.48913,219.32 C875.525362,218.2 876.043478,216.84 876.043478,215.24 L876.043478,215.24 L876.043478,112.76 L944.195652,216.92 C945.789855,219.64 948.181159,221 951.369565,221 L951.369565,221 L970.26087,221 C971.855072,221 973.210145,220.44 974.326087,219.32 C975.442029,218.2 976,216.76 976,215 L976,215 L976,59 C976,57.24 975.442029,55.8 974.326087,54.68 C973.210145,53.56 971.775362,53 970.021739,53 L970.021739,53 L949.456522,53 C947.702899,53 946.307971,53.56 945.271739,54.68 C944.235507,55.8 943.717391,57.24 943.717391,59 L943.717391,59 L943.717391,163.64 L875.326087,57.08 C873.731884,54.36 871.42029,53 868.391304,53 L868.391304,53 L849.73913,53 C847.985507,53 846.59058,53.56 845.554348,54.68 C844.518116,55.8 844,57.24 844,59 L844,59 L844,215.24 C844,216.84 844.557971,218.2 845.673913,219.32 C846.789855,220.44 848.144928,221 849.73913,221 L849.73913,221 L870.304348,221 Z" id="ALAN" fill="#FFFFFF" fill-rule="nonzero"></path>
    </g>
</svg>