<?xml version="1.0" encoding="UTF-8"?>
<svg width="1000px" height="750px" viewBox="0 0 1000 750" version="1.1" xmlns="http://www.w3.org/2000/svg" xmlns:xlink="http://www.w3.org/1999/xlink">
    <!-- Generator: Sketch 62 (91390) - https://sketch.com -->
    <title>Artboard</title>
    <desc>Created with Sketch.</desc>
    <g id="Artboard" stroke="none" stroke-width="1" fill="none" fill-rule="evenodd">
        <g id="business-profile-desktop" transform="translate(-1357.000000, -514.000000)">
            <g id="Map">
                <g id="Map-Base">
                    <g id="path-1-link" fill="#000000" fill-rule="nonzero">
                        <rect id="path-1" x="0" y="0" width="3747.86823" height="1878"></rect>
                    </g>
                    <g id="path-1-link" fill="#F1F0EB">
                        <rect id="path-1" x="0" y="0" width="3747.86823" height="1878"></rect>
                    </g>
                </g>
                <g id="Group" transform="translate(187.649642, 121.795439)">
                    <path d="M809.585755,436.135106 C830.077479,436.135106 850.707484,438.512195 871.060927,436.135106 C886.249192,434.36126 897.44789,418.017286 908.222157,410.25577 C925.693831,397.669604 955.700636,381.246923 976.305407,376.744401 C1011.30944,369.095375 1032.03816,388.607617 1068.07025,392.377417 C1091.10666,394.787566 1114.42347,388.543879 1137.5236,390.237496 C1141.71022,390.544445 1143.32502,396.816681 1147.29344,398.185774 C1148.45966,398.588115 1162.82359,396.029409 1165.81082,400.810601 C1177.40436,419.366583 1176.80301,428.446162 1205.9968,422.178185 C1208.98435,421.536749 1211.49046,418.544878 1212.41517,415.631926 C1227.05342,369.519902 1191.53473,316.809073 1154.59711,291.780062 C1151.4281,289.632736 1130.87091,283.859605 1129.01846,274.270661 C1121.79343,236.871296 1176.73402,117.737671 1118.02607,91.3865042 C1083.1317,75.7241015 1055.33324,137.050097 1045.79037,158.989023 C1018.06177,222.736707 1006.8511,293.948863 925.696155,304.524712 C859.352572,313.170393 901.626875,303.521926 844.57591,296.692392 C831.631296,295.142801 818.375963,294.884137 805.464926,296.692392 C800.877168,297.33493 795.939745,299.87308 793.545088,303.839517 C788.178829,312.728023 784.708464,322.984533 783.374757,333.281873 C781.273328,349.506673 781.481042,366.112648 783.374757,382.363009 C784.244491,389.826384 787.272242,397.19039 791.542639,403.372182 C795.768527,409.489542 802.622855,413.288202 808.162961,418.246212 L809.585755,436.135106 Z" id="Path-11" fill="#C8ECBA" fill-rule="nonzero"></path>
                    <path d="M1604.36814,677.039576 C1604.36814,666.487553 1605.98637,655.810653 1604.36814,645.383508 C1602.06833,630.564668 1597.59891,616.108792 1592.71178,601.931523 C1581.77887,570.215837 1562.0518,595.582248 1557.76378,618.407857 C1554.34296,636.617286 1552.87555,655.860187 1556.73094,673.982547 C1558.31832,681.444077 1568.99426,711.07476 1585.39757,713.481477 C1590.73651,714.264814 1599.84787,718.591127 1601.58579,713.481477 C1606.9712,697.647801 1602.16896,680.036871 1602.46054,663.314568" id="Path-18" fill="#C8ECBA" fill-rule="nonzero"></path>
                    <path d="M1584.1668,1020.72322 C1589.85089,1020.72322 1715.03408,1029.63983 1678.88762,970.798801 C1668.71401,954.23768 1582.86104,934.740914 1582.65645,934.643164 C1569.55296,928.382566 1561.65675,914.274042 1549.37111,906.530109 C1373.61218,795.745078 1498.05921,887.95995 1380.32646,803.846953 C1351.3559,783.149219 1307.22756,677.632983 1247.90432,760.900445 C1232.66922,782.284775 1220.06742,806.124328 1212.50448,831.269412 C1204.41441,858.167108 1209.77419,889.633268 1221.95499,914.313714 C1271.56614,1014.83469 1451.8117,967.99142 1521.89704,971.892246 C1558.04003,973.9039 1561.51385,983.7011 1581.2324,1004.73877 L1584.1668,1020.72322 Z" id="Zilker-Park" fill="#C8ECBA" fill-rule="nonzero"></path>
                    <path d="M1312.85378,98.3333402 C1312.85378,115.255931 1310.88249,132.293781 1312.85378,149.101114 C1320.83958,217.188661 1347.10799,280.54169 1317.60696,349.188968 C1281.1766,433.96041 1223.37879,501.141527 1232.91392,594.900355 C1241.63157,680.620867 1327.56976,734.546343 1387.50667,779.570589 C1425.46751,808.086546 1504.67781,880.019157 1548.95638,898.258516 C1787.19067,996.392711 1353.27738,812.060555 1657.98763,945.476046 C1714.45297,970.199046 1716.15562,1007.07536 1756.50153,1051.49407 C1795.54373,1094.47745 1822.01638,1094.52107 1867.37394,1115.48086 C1880.96994,1121.76359 1892.04643,1133.1402 1906.14767,1138.18721 C1947.07509,1152.83563 1975.31753,1109.05351 2005.38482,1092.30015 C2017.85795,1085.35016 2032.79628,1084.18144 2046.1083,1079.01788 C2050.67537,1077.24637 2053.92516,1072.18455 2058.78696,1071.58614 C2147.1733,1060.70713 2167.2165,1118.5598 2240.26149,1135.07748 C2261.84143,1139.95735 2352.03251,1120.82917 2376.45962,1115.59682 C2436.84299,1102.66254 2442.99578,1064.27631 2480.41831,1018.89981 C2509.52397,983.607892 2565.44959,951.07001 2608.66987,940.355235 C2649.99769,930.109623 2728.31182,926.093315 2768.11749,951.023214 C2818.30274,982.453759 2748.54582,953.234244 2784.88536,995.803427 C2795.10212,1007.77164 2810.67889,1015.38426 2825.98825,1019.01577 C2850.61381,1024.85715 2937.59327,1008.48103 2941.58223,1055.56308 C2942.07772,1061.33597 2943.18241,1086.23596 2938.77879,1095.25176 C2924.8789,1123.70989 2907.88686,1150.5962 2894.18743,1179.15141 C2889.09813,1189.7596 2886.42354,1201.36582 2882.54161,1212.47303" id="Colorado-River" stroke="#ADDBFF" stroke-width="50"></path>
                    <path d="M1007.23956,1161.05169 C1017.97606,1131.79031 1034.15084,1059.84733 1065.33165,1029.00909 C1082.64946,1011.88155 1099.00326,993.356389 1118.91296,979.327092 C1154.06542,954.557037 1183.31812,951.970954 1214.70378,926.377232 C1230.39691,913.580117 1242.51901,896.696123 1258.56794,884.348346 C1327.66233,831.188279 1320.31073,856.375181 1360.43987,804.696913 C1384.24941,774.035025 1410.25296,728.892772 1426.08857,695.445002 C1434.84866,676.942051 1438.72321,656.280056 1448.29467,638.183677 C1458.91684,618.100786 1474.90377,601.261891 1486.29904,581.607547 C1517.46147,527.859192 1542.6022,452.140784 1546.33034,390.47995 C1550.50301,321.466873 1543.61957,252.095889 1547.50019,183.065767 C1565.06325,-129.353044 1562.03375,276.617173 1562.03375,65.2541723" id="Mopac" stroke="#FCEB86" stroke-width="20"></path>
                    <path d="M1769.1802,1187.00481 C1769.1802,925.215727 1761.49728,938.674773 1887.84107,530.207284 C1901.96163,484.555791 2057.0458,276.840525 2086.85286,234.265741 C2136.80071,162.922923 2163.38837,80.9064337 2194.12086,0.149984244" id="I-35" stroke="#FCEB86" stroke-width="20"></path>
                </g>
                <path d="M1874.69663,779.754386 C1846.95819,779.754386 1824.52374,802.19368 1824.52374,829.93811 C1824.52374,867.575902 1874.69663,923.136452 1874.69663,923.136452 C1874.69663,923.136452 1924.86949,867.575902 1924.86949,829.93811 C1924.86949,802.19368 1902.43506,779.754386 1874.69663,779.754386 Z M1874.69663,847.860867 C1864.8054,847.860867 1856.77773,839.831472 1856.77773,829.93811 C1856.77773,820.044747 1864.8054,812.015351 1874.69663,812.015351 C1884.58785,812.015351 1892.6155,820.044747 1892.6155,829.93811 C1892.6155,839.831472 1884.58785,847.860867 1874.69663,847.860867 Z" id="Map-Pin" fill="#71A2DA" fill-rule="nonzero"></path>
            </g>
        </g>
    </g>
</svg>