<?xml version="1.0" encoding="UTF-8"?>
<svg width="3016px" height="3016px" viewBox="0 0 3016 3016" version="1.1" xmlns="http://www.w3.org/2000/svg" xmlns:xlink="http://www.w3.org/1999/xlink">
    <title>Artboard</title>
    <g id="Artboard" stroke="none" stroke-width="1" fill="none" fill-rule="evenodd">
        <rect fill="#1E3050" x="0" y="0" width="3016" height="3016"></rect>
        <g id="Group" transform="translate(393.000000, 616.000000)" fill-rule="nonzero">
            <path d="M1177.02188,18.815625 C1139.39062,-6.271875 1090.60938,-6.271875 1052.97812,18.815625 L579.451563,334.5 L167.25,334.5 C74.9140625,334.5 0,409.414062 0,501.75 L0,1616.75 C0,1709.08594 74.9140625,1784 167.25,1784 L892,1784 L892,1449.5 C892,1326.50156 992.001562,1226.5 1115,1226.5 C1237.99844,1226.5 1338,1326.50156 1338,1449.5 L1338,1784 L2062.75,1784 C2155.08594,1784 2230,1709.08594 2230,1616.75 L2230,501.75 C2230,409.414062 2155.08594,334.5 2062.75,334.5 L1650.54844,334.5 L1177.02188,18.815625 Z" id="Path" fill="#A7ACB8"></path>
            <path d="M334.75,669 L446.25,669 C476.9125,669 502,694.125 502,724.833333 L502,948.166667 C502,978.875 476.9125,1004 446.25,1004 L334.75,1004 C304.0875,1004 279,978.875 279,948.166667 L279,724.833333 C279,694.125 304.0875,669 334.75,669 Z" id="Path" fill="#1E3050"></path>
            <path d="M1729,724.833333 C1729,694.125 1754.0875,669 1784.75,669 L1896.25,669 C1926.9125,669 1952,694.125 1952,724.833333 L1952,948.166667 C1952,978.875 1926.9125,1004 1896.25,1004 L1784.75,1004 C1754.0875,1004 1729,978.875 1729,948.166667 L1729,724.833333 Z" id="Path" fill="#1E3050"></path>
            <path d="M334.75,1115 L446.25,1115 C476.9125,1115 502,1140.125 502,1170.83333 L502,1394.16667 C502,1424.875 476.9125,1450 446.25,1450 L334.75,1450 C304.0875,1450 279,1424.875 279,1394.16667 L279,1170.83333 C279,1140.125 304.0875,1115 334.75,1115 Z" id="Path" fill="#1E3050"></path>
            <path d="M1729,1170.83333 C1729,1140.125 1754.0875,1115 1784.75,1115 L1896.25,1115 C1926.9125,1115 1952,1140.125 1952,1170.83333 L1952,1394.16667 C1952,1424.875 1926.9125,1450 1896.25,1450 L1784.75,1450 C1754.0875,1450 1729,1424.875 1729,1394.16667 L1729,1170.83333 Z" id="Path" fill="#1E3050"></path>
            <path d="M809,613 C809,443.448582 946.224724,306 1115.5,306 C1284.77528,306 1422,443.448582 1422,613 C1422,782.551418 1284.77528,920 1115.5,920 C946.224724,920 809,782.551418 809,613 Z" id="Path" fill="#FFFFFF"></path>
            <path d="M1115.75,446 C1085.0875,446 1060,471.0875 1060,501.75 L1060,613.25 C1060,643.9125 1085.0875,669 1115.75,669 L1227.25,669 C1257.9125,669 1283,643.9125 1283,613.25 C1283,582.5875 1257.9125,557.5 1227.25,557.5 L1171.5,557.5 L1171.5,501.75 C1171.5,471.0875 1146.4125,446 1115.75,446 Z" id="Path" fill="#1E3050"></path>
        </g>
    </g>
</svg>