<?xml version="1.0" encoding="UTF-8"?>
<svg width="5771px" height="1784px" viewBox="0 0 5771 1784" version="1.1" xmlns="http://www.w3.org/2000/svg" xmlns:xlink="http://www.w3.org/1999/xlink">
    <title>Artboard</title>
    <g id="Artboard" stroke="none" stroke-width="1" fill="none" fill-rule="evenodd">
        <g id="THE-TRADE-SCHOOL" transform="translate(2537.000000, 0.000000)" fill-rule="nonzero">
            <path d="M295.2,533.6 L295.2,120 L444,120 L444,0 L8,0 L8,120 L157.6,120 L157.6,533.6 L295.2,533.6 Z M644.56,533.6 L644.56,319.2 L866.16,319.2 L866.16,533.6 L1003.76,533.6 L1003.76,0 L866.16,0 L866.16,199.2 L644.56,199.2 L644.56,0 L506.96,0 L506.96,533.6 L644.56,533.6 Z M1488.32,533.6 L1488.32,417.6 L1234.72,417.6 L1234.72,321.6 L1482.72,321.6 L1482.72,204.8 L1234.72,204.8 L1234.72,116 L1488.32,116 L1488.32,0 L1097.12,0 L1097.12,533.6 L1488.32,533.6 Z" id="THE" fill="#A7ACB8"></path>
            <path d="M295.2,1153.6 L295.2,740 L444,740 L444,620 L8,620 L8,740 L157.6,740 L157.6,1153.6 L295.2,1153.6 Z M644.56,1153.6 L644.56,972.8 L714.96,972.8 L804.56,1153.6 L962.16,1153.6 L853.36,957.6 C902.96,940 959.76,890.4 959.76,797.6 C959.76,698.4 892.56,620 774.16,620 L506.96,620 L506.96,1153.6 L644.56,1153.6 Z M753.36,856 L644.56,856 L644.56,736 L753.36,736 C789.36,736 819.76,759.2 819.76,796 C819.76,832.8 789.36,856 753.36,856 Z M1125.92,1153.6 L1153.12,1072.8 L1374.72,1072.8 L1401.92,1153.6 L1551.52,1153.6 L1349.92,620 L1177.12,620 L976.32,1153.6 L1125.92,1153.6 Z M1338.72,956.8 L1189.12,956.8 L1263.52,740 L1338.72,956.8 Z M1812.88,1153.6 C1980.08,1153.6 2100.88,1052 2100.88,886.4 C2100.88,720.8 1980.08,620 1812.08,620 L1588.08,620 L1588.08,1153.6 L1812.88,1153.6 Z M1812.08,1033.6 L1725.68,1033.6 L1725.68,740 L1812.88,740 C1910.48,740 1960.08,804 1960.08,886.4 C1960.08,965.6 1905.68,1033.6 1812.08,1033.6 Z M2558.24,1153.6 L2558.24,1037.6 L2304.64,1037.6 L2304.64,941.6 L2552.64,941.6 L2552.64,824.8 L2304.64,824.8 L2304.64,736 L2558.24,736 L2558.24,620 L2167.04,620 L2167.04,1153.6 L2558.24,1153.6 Z M236.8,1783.2 C380,1783.2 459.2,1712 459.2,1604.8 C459.2,1484 337.6,1458.4 249.6,1440 C190.4,1428.8 157.6,1419.2 157.6,1391.2 C157.6,1368 175.2,1349.6 220.8,1349.6 C268,1349.6 326.4,1368 371.2,1404.8 L446.4,1306.4 C389.6,1257.6 315.2,1232 229.6,1232 C92.8,1232 16.8,1309.6 16.8,1399.2 C16.8,1525.6 140,1548 228,1565.6 C284.8,1577.6 319.2,1589.6 319.2,1620 C319.2,1645.6 290.4,1665.6 243.2,1665.6 C170.4,1665.6 111.2,1633.6 72.8,1595.2 L2.27373675e-13,1698.4 C53.6,1749.6 128.8,1783.2 236.8,1783.2 Z M778.16,1783.2 C910.96,1783.2 980.56,1708.8 1014.96,1640 L896.56,1584 C878.96,1626.4 833.36,1661.6 778.16,1661.6 C694.96,1661.6 633.36,1594.4 633.36,1507.2 C633.36,1420 694.96,1352.8 778.16,1352.8 C833.36,1352.8 878.96,1388 896.56,1430.4 L1014.96,1374.4 C979.76,1304 910.96,1231.2 778.16,1231.2 C618.16,1231.2 493.36,1342.4 493.36,1507.2 C493.36,1671.2 618.16,1783.2 778.16,1783.2 Z M1209.12,1773.6 L1209.12,1559.2 L1430.72,1559.2 L1430.72,1773.6 L1568.32,1773.6 L1568.32,1240 L1430.72,1240 L1430.72,1439.2 L1209.12,1439.2 L1209.12,1240 L1071.52,1240 L1071.52,1773.6 L1209.12,1773.6 Z M1920.08,1783.2 C2083.28,1783.2 2204.88,1669.6 2204.88,1507.2 C2204.88,1344.8 2083.28,1231.2 1920.08,1231.2 C1756.88,1231.2 1634.48,1344.8 1634.48,1507.2 C1634.48,1669.6 1756.88,1783.2 1920.08,1783.2 Z M1920.08,1661.6 C1831.28,1661.6 1774.48,1593.6 1774.48,1507.2 C1774.48,1420 1831.28,1352.8 1920.08,1352.8 C2008.08,1352.8 2064.88,1420 2064.88,1507.2 C2064.88,1593.6 2008.08,1661.6 1920.08,1661.6 Z M2530.24,1783.2 C2693.44,1783.2 2815.04,1669.6 2815.04,1507.2 C2815.04,1344.8 2693.44,1231.2 2530.24,1231.2 C2367.04,1231.2 2244.64,1344.8 2244.64,1507.2 C2244.64,1669.6 2367.04,1783.2 2530.24,1783.2 Z M2530.24,1661.6 C2441.44,1661.6 2384.64,1593.6 2384.64,1507.2 C2384.64,1420 2441.44,1352.8 2530.24,1352.8 C2618.24,1352.8 2675.04,1420 2675.04,1507.2 C2675.04,1593.6 2618.24,1661.6 2530.24,1661.6 Z M3234,1773.6 L3234,1653.6 L3019.6,1653.6 L3019.6,1240 L2882,1240 L2882,1773.6 L3234,1773.6 Z" id="TRADESCHOOL" fill="#1E3050"></path>
        </g>
        <g id="Group" fill-rule="nonzero">
            <path d="M1177.02188,18.815625 C1139.39062,-6.271875 1090.60938,-6.271875 1052.97812,18.815625 L579.451563,334.5 L167.25,334.5 C74.9140625,334.5 0,409.414062 0,501.75 L0,1616.75 C0,1709.08594 74.9140625,1784 167.25,1784 L892,1784 L892,1449.5 C892,1326.50156 992.001562,1226.5 1115,1226.5 C1237.99844,1226.5 1338,1326.50156 1338,1449.5 L1338,1784 L2062.75,1784 C2155.08594,1784 2230,1709.08594 2230,1616.75 L2230,501.75 C2230,409.414062 2155.08594,334.5 2062.75,334.5 L1650.54844,334.5 L1177.02188,18.815625 Z" id="Path" fill="#A7ACB8"></path>
            <path d="M334.75,669 L446.25,669 C476.9125,669 502,694.125 502,724.833333 L502,948.166667 C502,978.875 476.9125,1004 446.25,1004 L334.75,1004 C304.0875,1004 279,978.875 279,948.166667 L279,724.833333 C279,694.125 304.0875,669 334.75,669 Z" id="Path" fill="#1E3050"></path>
            <path d="M1729,724.833333 C1729,694.125 1754.0875,669 1784.75,669 L1896.25,669 C1926.9125,669 1952,694.125 1952,724.833333 L1952,948.166667 C1952,978.875 1926.9125,1004 1896.25,1004 L1784.75,1004 C1754.0875,1004 1729,978.875 1729,948.166667 L1729,724.833333 Z" id="Path" fill="#1E3050"></path>
            <path d="M334.75,1115 L446.25,1115 C476.9125,1115 502,1140.125 502,1170.83333 L502,1394.16667 C502,1424.875 476.9125,1450 446.25,1450 L334.75,1450 C304.0875,1450 279,1424.875 279,1394.16667 L279,1170.83333 C279,1140.125 304.0875,1115 334.75,1115 Z" id="Path" fill="#1E3050"></path>
            <path d="M1729,1170.83333 C1729,1140.125 1754.0875,1115 1784.75,1115 L1896.25,1115 C1926.9125,1115 1952,1140.125 1952,1170.83333 L1952,1394.16667 C1952,1424.875 1926.9125,1450 1896.25,1450 L1784.75,1450 C1754.0875,1450 1729,1424.875 1729,1394.16667 L1729,1170.83333 Z" id="Path" fill="#1E3050"></path>
            <path d="M809,613 C809,443.448582 946.224724,306 1115.5,306 C1284.77528,306 1422,443.448582 1422,613 C1422,782.551418 1284.77528,920 1115.5,920 C946.224724,920 809,782.551418 809,613 Z" id="Path" fill="#FFFFFF"></path>
            <path d="M1115.75,446 C1085.0875,446 1060,471.0875 1060,501.75 L1060,613.25 C1060,643.9125 1085.0875,669 1115.75,669 L1227.25,669 C1257.9125,669 1283,643.9125 1283,613.25 C1283,582.5875 1257.9125,557.5 1227.25,557.5 L1171.5,557.5 L1171.5,501.75 C1171.5,471.0875 1146.4125,446 1115.75,446 Z" id="Path" fill="#1E3050"></path>
        </g>
    </g>
</svg>